<?xml version="1.0" encoding="UTF-8"?>
<svg id="Layer_2" data-name="Layer 2" xmlns="http://www.w3.org/2000/svg" xmlns:xlink="http://www.w3.org/1999/xlink" viewBox="0 0 96.81 119.63">
  <defs>
    <style>
      .cls-1 {
        fill: url(#linear-gradient);
        stroke-width: 0px;
      }
    </style>
    <linearGradient id="linear-gradient" x1="0" y1="59.82" x2="96.81" y2="59.82" gradientUnits="userSpaceOnUse">
      <stop offset="0" stop-color="#64945b"/>
      <stop offset="1" stop-color="#d9b935"/>
    </linearGradient>
  </defs>
  <g id="Layer_1-2" data-name="Layer 1">
    <path class="cls-1" d="M94.89,66.68c-2.39,7.77-6.86,14.89-12.81,20.42-3.02,2.81-6.42,5.25-10.07,7.19-3.68,1.95-7.86,3.02-11.02,5.86-4.91,4.41-6.1,10.91-6.07,17.22.01,3.01-4.66,3.01-4.67,0-.03-7.33,1.55-14.95,7.07-20.19,3.1-2.94,6.82-4.24,10.58-6.05,3.63-1.74,7.05-3.94,10.06-6.61,5.91-5.24,10.35-12.02,12.58-19.61,2.51-8.54,1.82-17.33-.22-25.89-.82-3.43-1.81-6.92-3.08-10.25-.92,1.57-1.95,3.08-3.04,4.51-3.96,5.18-9.22,8.66-14.07,12.92-4.85,4.25-8.87,9.09-11.69,14.92-2.69,5.57-4.12,11.76-4.24,17.94-.04,1.86.02,3.72.09,5.57.03-.02.06-.03.09-.04,2.64-1.23,5.18-2.67,7.6-4.3,6.88-4.64,12.57-11.11,15.14-19.1.92-2.85,5.43-1.63,4.5,1.24-4.2,13.08-16.03,23.51-28.93,27.87-1.49.5-2.92-.81-2.95-2.25-.12-3.91-.39-7.86-.08-11.76,1.02-12.86,7.07-24.44,16.66-32.98,4.91-4.36,10.53-7.87,14.45-13.24,1.28-1.75,2.43-3.61,3.4-5.55.19-.37.37-.75.54-1.13.02-.05.12-.26.18-.4.03-.07.14-.35.17-.43.63-1.74,3.3-2.51,4.27-.56,2.93,5.9,4.88,12.44,6.15,18.88,1.69,8.6,1.99,17.32-.62,25.78ZM1.92,45.8c2.39,7.77,6.86,14.89,12.81,20.42,3.02,2.81,6.42,5.25,10.07,7.19,3.68,1.95,7.86,3.02,11.02,5.86,4.91,4.41,6.1,10.91,6.07,17.22-.01,3.01,4.66,3.01,4.67,0,.03-7.33-1.55-14.95-7.07-20.19-3.1-2.94-6.82-4.24-10.58-6.05-3.63-1.74-7.05-3.94-10.06-6.61-5.91-5.24-10.35-12.02-12.58-19.61-2.51-8.54-1.82-17.33.22-25.89.82-3.43,1.81-6.92,3.08-10.25.92,1.57,1.95,3.08,3.04,4.51,3.96,5.18,9.22,8.66,14.07,12.92,4.85,4.25,8.87,9.09,11.69,14.92,2.69,5.57,4.12,11.76,4.24,17.94.04,1.86-.02,3.72-.09,5.57-.03-.02-.06-.03-.09-.04-2.64-1.23-5.18-2.67-7.6-4.3-6.88-4.64-12.57-11.11-15.14-19.1-.92-2.85-5.43-1.63-4.5,1.24,4.2,13.08,16.03,23.51,28.93,27.87,1.49.5,2.92-.81,2.95-2.25.12-3.91.39-7.86.08-11.76-1.02-12.86-7.07-24.44-16.66-32.98-4.91-4.36-10.53-7.87-14.45-13.24-1.28-1.75-2.43-3.61-3.4-5.55-.19-.37-.37-.75-.54-1.13-.02-.05-.12-.26-.18-.4-.03-.07-.14-.35-.17-.43-.63-1.74-3.3-2.51-4.27-.56C4.53,7.04,2.58,13.59,1.31,20.02c-1.69,8.6-1.99,17.32.62,25.78Z"/>
  </g>
</svg>